<svg width="209" height="272" xmlns="http://www.w3.org/2000/svg">

 <g>
  <title>Layer 1</title>
  <g>
   <g fill="#fff" transform="translate(0 500) scale(0.1 -0.1)">
    <path d="m726,4824.99994c-165,-96 -303,-181 -308,-188c-4,-6 -8,-172 -8,-368c0,-269 3,-359 13,-371c6,-9 132,-87 279,-172c318,-184 321,-186 350,-186c22,0 545,296 601,340l27,22l0,164c0,90 -3,164 -6,164c-4,0 -31,-14 -60,-31l-54,-30l0,-93c0,-83 -2,-95 -22,-113c-31,-29 -471,-283 -489,-283c-20,0 -481,267 -496,287c-10,13 -13,90 -13,303c0,284 0,287 23,307c44,39 458,273 484,273c24,0 435,-229 487,-271c19,-15 22,-31 26,-151c6,-150 6,-150 78,-104l42,26l0,144c0,124 -2,145 -17,158c-10,8 -99,61 -198,118c-99,57 -229,132 -289,167c-61,35 -119,63 -130,63c-12,0 -156,-79 -320,-175z"/>
    <path d="m847,4637.99994c-160,-93 -178,-105 -175,-127c2,-20 34,-42 173,-123c94,-55 181,-102 195,-104c18,-4 62,17 163,75l137,80l-2,-172l-3,-171l-130,-77c-71,-43 -141,-78 -155,-78c-14,-1 -81,32 -155,77l-130,77l-5,115l-5,115l-54,32c-30,18 -58,30 -62,27c-5,-3 -9,-83 -9,-178c0,-148 2,-176 16,-187c9,-7 100,-62 203,-122c136,-79 192,-106 208,-102c32,8 385,213 401,233c13,18 18,458 4,478c-8,13 -109,74 -122,74c-5,0 -67,-34 -138,-75c-71,-41 -140,-75 -152,-75c-26,0 -150,66 -150,80c0,11 69,57 117,77c30,12 38,12 68,-3c34,-16 35,-15 82,13c27,16 49,36 51,44c3,18 -136,99 -169,99c-13,0 -104,-46 -202,-102z"/>
    <path d="m37,3177.99994c-27,-21 -37,-65 -37,-167c0,-113 11,-154 46,-170c33,-15 249,-15 277,0c34,18 37,28 37,122l0,87l-105,0l-105,0l0,-35l0,-35l70,0l70,0l0,-40l0,-40l-110,0l-110,0l0,110l0,110l145,0l145,0l0,35l0,35l-153,0c-107,0 -158,-4 -170,-12z"/>
    <path d="m440,3009.99994l0,-180l35,0l35,0l0,75c0,64 3,75 17,75c9,0 51,-34 94,-75c75,-74 78,-75 128,-75l51,0l0,35c0,34 -1,35 -38,35c-30,0 -45,7 -70,33c-18,18 -32,36 -32,40c0,4 22,7 48,7c69,0 87,22 87,107c0,99 -8,103 -201,103l-154,0l0,-180zm290,75l0,-35l-110,0l-110,0l0,35l0,35l110,0l110,0l0,-35z"/>
    <path d="m892,3166.99994c-20,-22 -22,-34 -22,-156c0,-127 1,-133 25,-156c24,-24 28,-25 180,-25l155,0l0,35l0,35l-145,0l-145,0l0,40l0,40l145,0l145,0l0,35l0,35l-145,0l-145,0l0,35l0,35l145,0l145,0l0,35l0,35l-158,0c-153,0 -159,-1 -180,-23z"/>
    <path d="m1325,3164.99994c-24,-24 -25,-28 -25,-180l0,-155l35,0l35,0l0,75l0,75l110,0l110,0l0,-75l0,-75l35,0l35,0l0,158c0,209 6,202 -179,202c-127,0 -133,-1 -156,-25zm265,-80l0,-35l-110,0l-110,0l0,35l0,35l110,0l110,0l0,-35z"/>
    <path d="m1730,3154.99994l0,-35l75,0l75,0l0,-145l0,-145l35,0l35,0l0,145l0,145l70,0l70,0l0,35l0,35l-180,0l-180,0l0,-35z"/>
    <path d="m370,2459.99994l0,-180l153,0c159,1 173,4 195,47c16,30 15,95 -2,118c-12,16 -11,21 1,34c11,11 14,29 11,69c-8,87 -18,92 -204,92l-154,0l0,-180zm290,75l0,-35l-110,0l-110,0l0,35l0,35l110,0l110,0l0,-35zm-2,-147l3,-38l-110,0l-111,0l0,40l0,41l108,-3l107,-3l3,-37z"/>
    <path d="m800,2484.99994c0,-152 1,-156 25,-180c23,-24 29,-25 155,-25c126,0 132,1 155,25c24,24 25,28 25,180l0,155l-35,0l-35,0l0,-145l0,-145l-110,0l-110,0l0,145l0,145l-35,0l-35,0l0,-155z"/>
    <path d="m1230,2560.99994c0,-64 4,-83 21,-105c20,-26 22,-26 145,-26l124,0l0,-40l0,-40l-145,0l-145,0l0,-35l0,-35l154,0c140,0 156,2 180,21l26,20l0,160l0,159l-35,0l-35,0l0,-70l0,-70l-110,0l-110,0l0,70l0,70l-35,0l-35,0l0,-79z"/>
    <path d="m1660,2514.99994l0,-125l35,0l35,0l0,125l0,125l-35,0l-35,0l0,-125z"/>
    <path d="m1660,2314.99994c0,-33 2,-35 35,-35c33,0 35,2 35,35c0,33 -2,35 -35,35c-33,0 -35,-2 -35,-35z"/>
   </g>
  </g>
 </g>
</svg>