<?xml version="1.0" standalone="no"?>
<!DOCTYPE svg PUBLIC "-//W3C//DTD SVG 20010904//EN"
 "http://www.w3.org/TR/2001/REC-SVG-20010904/DTD/svg10.dtd">
<svg version="1.0" xmlns="http://www.w3.org/2000/svg"
 width="500.000000pt" height="500.000000pt" viewBox="0 0 500.000000 500.000000"
 preserveAspectRatio="xMidYMid meet">

<g transform="translate(0.000000,500.000000) scale(0.100000,-0.100000)"
fill="#000000" stroke="none">
<path d="M2176 3725 c-165 -96 -303 -181 -308 -188 -4 -6 -8 -172 -8 -368 0
-269 3 -359 13 -371 6 -9 132 -87 279 -172 318 -184 321 -186 350 -186 22 0
545 296 601 340 l27 22 0 164 c0 90 -3 164 -6 164 -4 0 -31 -14 -60 -31 l-54
-30 0 -93 c0 -83 -2 -95 -22 -113 -31 -29 -471 -283 -489 -283 -20 0 -481 267
-496 287 -10 13 -13 90 -13 303 0 284 0 287 23 307 44 39 458 273 484 273 24
0 435 -229 487 -271 19 -15 22 -31 26 -151 6 -150 6 -150 78 -104 l42 26 0
144 c0 124 -2 145 -17 158 -10 8 -99 61 -198 118 -99 57 -229 132 -289 167
-61 35 -119 63 -130 63 -12 0 -156 -79 -320 -175z"/>
<path d="M2297 3538 c-160 -93 -178 -105 -175 -127 2 -20 34 -42 173 -123 94
-55 181 -102 195 -104 18 -4 62 17 163 75 l137 80 -2 -172 -3 -171 -130 -77
c-71 -43 -141 -78 -155 -78 -14 -1 -81 32 -155 77 l-130 77 -5 115 -5 115 -54
32 c-30 18 -58 30 -62 27 -5 -3 -9 -83 -9 -178 0 -148 2 -176 16 -187 9 -7
100 -62 203 -122 136 -79 192 -106 208 -102 32 8 385 213 401 233 13 18 18
458 4 478 -8 13 -109 74 -122 74 -5 0 -67 -34 -138 -75 -71 -41 -140 -75 -152
-75 -26 0 -150 66 -150 80 0 11 69 57 117 77 30 12 38 12 68 -3 34 -16 35 -15
82 13 27 16 49 36 51 44 3 18 -136 99 -169 99 -13 0 -104 -46 -202 -102z"/>
<path d="M1487 2078 c-27 -21 -37 -65 -37 -167 0 -113 11 -154 46 -170 33 -15
249 -15 277 0 34 18 37 28 37 122 l0 87 -105 0 -105 0 0 -35 0 -35 70 0 70 0
0 -40 0 -40 -110 0 -110 0 0 110 0 110 145 0 145 0 0 35 0 35 -153 0 c-107 0
-158 -4 -170 -12z"/>
<path d="M1890 1910 l0 -180 35 0 35 0 0 75 c0 64 3 75 17 75 9 0 51 -34 94
-75 75 -74 78 -75 128 -75 l51 0 0 35 c0 34 -1 35 -38 35 -30 0 -45 7 -70 33
-18 18 -32 36 -32 40 0 4 22 7 48 7 69 0 87 22 87 107 0 99 -8 103 -201 103
l-154 0 0 -180z m290 75 l0 -35 -110 0 -110 0 0 35 0 35 110 0 110 0 0 -35z"/>
<path d="M2342 2067 c-20 -22 -22 -34 -22 -156 0 -127 1 -133 25 -156 24 -24
28 -25 180 -25 l155 0 0 35 0 35 -145 0 -145 0 0 40 0 40 145 0 145 0 0 35 0
35 -145 0 -145 0 0 35 0 35 145 0 145 0 0 35 0 35 -158 0 c-153 0 -159 -1
-180 -23z"/>
<path d="M2775 2065 c-24 -24 -25 -28 -25 -180 l0 -155 35 0 35 0 0 75 0 75
110 0 110 0 0 -75 0 -75 35 0 35 0 0 158 c0 209 6 202 -179 202 -127 0 -133
-1 -156 -25z m265 -80 l0 -35 -110 0 -110 0 0 35 0 35 110 0 110 0 0 -35z"/>
<path d="M3180 2055 l0 -35 75 0 75 0 0 -145 0 -145 35 0 35 0 0 145 0 145 70
0 70 0 0 35 0 35 -180 0 -180 0 0 -35z"/>
<path d="M1820 1360 l0 -180 153 0 c159 1 173 4 195 47 16 30 15 95 -2 118
-12 16 -11 21 1 34 11 11 14 29 11 69 -8 87 -18 92 -204 92 l-154 0 0 -180z
m290 75 l0 -35 -110 0 -110 0 0 35 0 35 110 0 110 0 0 -35z m-2 -147 l3 -38
-110 0 -111 0 0 40 0 41 108 -3 107 -3 3 -37z"/>
<path d="M2250 1385 c0 -152 1 -156 25 -180 23 -24 29 -25 155 -25 126 0 132
1 155 25 24 24 25 28 25 180 l0 155 -35 0 -35 0 0 -145 0 -145 -110 0 -110 0
0 145 0 145 -35 0 -35 0 0 -155z"/>
<path d="M2680 1461 c0 -64 4 -83 21 -105 20 -26 22 -26 145 -26 l124 0 0 -40
0 -40 -145 0 -145 0 0 -35 0 -35 154 0 c140 0 156 2 180 21 l26 20 0 160 0
159 -35 0 -35 0 0 -70 0 -70 -110 0 -110 0 0 70 0 70 -35 0 -35 0 0 -79z"/>
<path d="M3110 1415 l0 -125 35 0 35 0 0 125 0 125 -35 0 -35 0 0 -125z"/>
<path d="M3110 1215 c0 -33 2 -35 35 -35 33 0 35 2 35 35 0 33 -2 35 -35 35
-33 0 -35 -2 -35 -35z"/>
</g>
</svg>
